<?xml version="1.0" standalone="no"?>
<!DOCTYPE svg PUBLIC "-//W3C//DTD SVG 20010904//EN"
 "http://www.w3.org/TR/2001/REC-SVG-20010904/DTD/svg10.dtd">
<svg version="1.0" xmlns="http://www.w3.org/2000/svg"
 width="442.000000pt" height="442.000000pt" viewBox="0 0 442.000000 442.000000"
 preserveAspectRatio="xMidYMid meet">
<metadata>
Created by potrace 1.14, written by Peter Selinger 2001-2017
</metadata>
<g transform="translate(0.000000,442.000000) scale(0.100000,-0.100000)"
fill="#000000" stroke="none">
<path d="M2820 3201 c-30 -10 -89 -28 -130 -41 -41 -12 -97 -34 -125 -48 -198
-99 -423 -393 -465 -607 -5 -22 -16 -71 -25 -110 -30 -129 -16 -390 28 -525 8
-25 23 -72 33 -105 33 -109 103 -213 229 -337 83 -84 106 -99 217 -155 129
-65 153 -73 286 -98 205 -38 470 6 637 106 72 43 211 180 265 262 38 58 105
187 121 232 54 157 93 466 70 552 -6 21 -11 51 -11 67 0 16 -4 43 -10 60 -59
189 -79 237 -132 322 -32 51 -58 95 -58 99 0 14 -88 99 -160 154 -141 108
-215 143 -370 177 -96 21 -329 18 -400 -5z m295 -712 c52 -26 89 -68 129 -147
24 -48 27 -62 25 -160 -1 -117 -5 -129 -71 -223 -49 -71 -96 -95 -186 -93 -35
1 -69 7 -75 13 -6 6 -18 11 -27 11 -22 0 -81 64 -116 125 -28 49 -29 54 -29
190 1 110 4 147 17 170 21 39 100 115 135 132 42 19 142 10 198 -18z"/>
<path d="M456 3149 l-26 -20 0 -283 c0 -282 0 -283 23 -304 22 -20 34 -22 227
-24 l205 -3 3 -629 2 -630 22 -23 c21 -23 22 -23 304 -23 250 0 283 2 295 17
11 13 15 132 19 642 l5 626 70 6 c39 4 133 10 210 14 201 11 185 -18 185 327
l0 279 -25 24 -24 25 -734 0 c-728 0 -735 0 -761 -21z"/>
</g>
</svg>
